<?xml version="1.0" encoding="utf-8"?>
<!-- Generator: Adobe Illustrator 26.1.0, SVG Export Plug-In . SVG Version: 6.00 Build 0)  -->
<svg version="1.1" id="Calque_1" xmlns="http://www.w3.org/2000/svg" xmlns:xlink="http://www.w3.org/1999/xlink" x="0px" y="0px"
	 viewBox="0 0 145.6 50" style="enable-background:new 0 0 145.6 50;" xml:space="preserve">
<style type="text/css">
	.st0{fill:#FF6E0C;}
</style>
<g>
	<g>
		<g>
			<path class="st0" d="M88.3,36.5c0.7,0,1.4,0.1,2.1,0c1.1-0.1,2.2-0.3,3.4-0.4c0.5-0.1,0.8-0.3,0.9-0.8c1.2-3,2.6-5.8,4.5-8.4
				c1.8-2.4,3.6-4.7,5.9-6.7c3.3-2.9,7.3-4.8,11.5-5.9c6.6-1.7,13-1.2,19.2,1.6c2.6,1.2,4.9,2.8,6.8,5.1c4.1,5.1,4,12.1-0.4,17
				c-2.3,2.6-5.3,4.3-8.6,5.4c-1.8,0.6-3.6,1.1-5.5,1.3c-2,0.2-4,0.1-6-0.5c-2.9-0.8-4.9-2.7-6.2-5.4c-1.4-3-0.3-6.3,2.6-8
				c1.6-0.9,3.4-1.3,5.2-1.3c0.2,0,0.4,0.1,0.6,0.1c0.4,0.2,0.6,0.7,0.6,1.1c-0.1,0.4-0.3,0.7-0.9,0.8c-0.5,0.1-0.9,0.1-1.4,0.1
				c-1.6,0.3-3.1,0.8-4.2,2.1c-1.5,1.7-1.5,3.5,0.2,5c1.2,1.1,2.8,1.6,4.4,1.9c3.2,0.6,6.3,0.1,9.3-0.9c2.5-0.8,4.8-1.9,6.8-3.7
				c1.2-1.1,2.3-2.2,3-3.7c1.4-2.8,1.3-5.6-0.2-8.3c-0.9-1.7-2.3-3.1-3.9-4.3c-2.8-2.1-5.9-3.2-9.2-3.8c-2.7-0.5-5.5-0.7-8.2-0.4
				c-6.2,0.8-11.6,3.1-16,7.6c-3.2,3.3-5.9,7-7.8,11.3c-0.1,0.3-0.2,0.6-0.4,0.9c0.3-0.1,0.5-0.1,0.7-0.1c3.7-1.1,6.9-3.1,9.8-5.6
				c2.5-2.2,4.6-4.6,6.2-7.5c0.2-0.3,0.5-0.6,0.8-0.9c0.5-0.4,1.1-0.3,1.5,0c0.3,0.3,0.4,0.7,0.1,1.3c-0.6,1.5-1.5,2.9-2.5,4.2
				c-3.3,4.5-7.5,7.9-12.7,10c-1.5,0.6-3,1-4.5,1.4c-0.4,0.1-0.6,0.3-0.8,0.6c-0.5,1.4-0.9,2.7-1.1,4.2c0,0.2,0,0.4-0.1,0.6
				c-0.1,0.1-0.2,0.3-0.4,0.4c-0.1,0-0.4-0.1-0.5-0.3s-0.2-0.5-0.2-0.8c0.1-1,0.3-2.1,0.4-3.1c0-0.3,0.2-0.7,0.3-1.1
				c-0.6,0.1-1.1,0.1-1.5,0.2c-2.4,0.3-4.8,0.3-7.2,0.1c-0.6-0.1-1.1,0-1.6,0.2c-2.8,1.1-5.6,1.7-8.6,1.9c-9,0.6-17.4-1.3-25.5-5.2
				c-5.9-2.8-11.3-6.3-16.2-10.6c-1.1-1-2.1-2.1-3-3.3c-0.2-0.2-0.3-0.5-0.4-0.7c0-0.1,0.1-0.4,0.2-0.5c0.1-0.1,0.4,0,0.5,0.1
				s0.3,0.2,0.4,0.3c2.4,2.7,5.3,4.8,8.3,6.8c6.1,4.2,12.7,7.4,19.9,9.3c4.5,1.2,9.1,1.8,13.8,1.7c2.1,0,4.2-0.2,6.3-0.7
				c0.2,0,0.3-0.1,0.7-0.2c-0.9-0.2-1.5-0.4-2.2-0.5c-4.5-1.1-8.8-2.9-12.9-5c-5.1-2.6-10.1-5.5-15.1-8.4c-3.8-2.2-7.7-4.5-11.6-6.6
				c-3.8-2.1-7.7-3.8-11.8-5c-1.8-0.5-3.7-0.8-5.6-0.9c-2.3-0.1-4.5,0.2-6.6,1c-3.8,1.4-7,3.7-9.4,7.1c-1.2,1.6-2.1,3.4-2.2,5.4
				c-0.1,1.8,0.4,3.4,1.6,4.7c0.8,0.8,1.8,1.1,2.9,0.9c1.9-0.3,3.4-1.3,4.6-2.8c1.9-2.3,2.6-4.9,2.3-7.9c-0.1-0.4-0.1-0.8-0.1-1.2
				c0-0.5,0.2-0.7,0.6-0.8c0.4-0.1,0.8,0.1,0.9,0.5c0.2,0.6,0.3,1.2,0.4,1.8c0.1,4.3-1.4,7.8-4.9,10.3c-1.3,0.9-2.8,1.5-4.5,1.5
				c-1.5,0-2.8-0.5-3.8-1.6c-1.9-2-2.5-4.3-1.9-7c0.7-3,2.3-5.6,4.4-7.8c3.3-3.4,7.3-5.7,12.1-6.5c2.6-0.4,5.1-0.3,7.7,0.2
				c4.1,0.7,7.9,2.3,11.7,4c3.9,1.8,7.6,4,11.2,6.1c5.5,3.3,11.1,6.6,16.7,9.6c4.3,2.3,8.7,4.4,13.5,5.6c2.1,0.6,4.4,0.9,6.5,1.4
				c0.3,0.1,0.7,0,1-0.2c1.9-1,3.6-2.4,5-4c1.2-1.4,2-3,2.1-4.8c0.1-1.2-0.1-2.4-0.5-3.6c-0.5-1.5-1.4-2.8-2.4-3.9
				c-2.5-2.9-5.8-4.7-9.4-5.9c-3.4-1-6.8-1.3-10.2-0.5c-0.8,0.2-1.6,0.5-2.3,0.8c-0.5,0.2-0.9,0.6-1.3,1c-0.5,0.5-0.6,1.1-0.3,1.7
				c0.4,0.6,0.7,1.3,1.2,1.8c0.8,0.7,1.6,1.5,2.5,2c1.3,0.8,2.7,1.4,4.1,2c0.5,0.2,1,0.4,1.4,0.7c0.2,0.2,0.5,0.5,0.6,0.8
				c0.2,0.6-0.3,1-0.9,1c-0.4,0-0.7-0.1-1-0.2c-1.9-0.6-3.7-1.4-5.3-2.4c-1.6-1-2.9-2.2-3.9-3.8c-1.4-2.3-1-4.9,0.9-6.7
				c0.4-0.3,0.8-0.6,1.2-0.9C68.2,9.9,70,9.3,72,9.1c6.5-0.6,12.3,1.3,17.3,5.4c1.5,1.2,2.7,2.7,3.7,4.4c2.4,4.3,2.2,8.6-0.4,12.8
				c-1,1.6-2.3,2.9-3.8,4.1c-0.2,0.1-0.3,0.3-0.5,0.4C88.3,36.4,88.3,36.4,88.3,36.5z"/>
			<path class="st0" d="M119,0c1,0.1,2.2,0.2,3.4,0.4c1.6,0.2,1.8,1.4,1.2,2.4c-0.9,1.8-2,3.5-3.4,5c-2.3,2.4-5,4.4-8.1,5.6
				c-2,0.8-4,1.6-6,2.4c-2.9,1.2-5.1,3.3-6.9,5.9c-0.1,0.2-0.2,0.3-0.3,0.5c-0.2,0.3-0.4,0.5-0.7,0.4c-0.4-0.1-0.7-0.3-0.8-0.7
				c-0.1-0.5-0.2-1-0.2-1.5c0-3.1,0.6-6.2,2.1-8.9c3.3-5.8,8.2-9.6,14.9-10.9c0.5-0.1,1-0.2,1.5-0.2C116.8,0.2,117.7,0.1,119,0z"/>
			<path class="st0" d="M104.4,37.9c3.8-0.1,7,0.7,9.8,3c1.6,1.3,3,2.6,4.5,4c0.6,0.5,1.1,1,1.7,1.6c0.9,1,0.7,1.9-0.5,2.5
				s-2.5,0.7-3.8,0.9c-1.8,0.2-3.5,0-5.3-0.4c-2.1-0.5-3.9-1.6-5.4-3c-0.7-0.6-1.3-1.3-2-1.9c-0.7-0.7-1.4-1.3-2.1-1.9
				c-1.1-0.9-2.3-1.5-3.7-1.6c-0.1,0-0.3,0-0.4-0.1c-0.2-0.2-0.4-0.4-0.5-0.6c-0.1-0.3,0-0.6,0.3-0.7c0.6-0.3,1.2-0.6,1.8-0.8
				C100.7,38.2,102.7,38.1,104.4,37.9z"/>
			<path class="st0" d="M80.7,33.2c-1.7-0.1-3.7-0.5-5.6-1.3c-1.3-0.5-2.6-1.1-3.9-1.7c-0.3-0.1-0.6-0.4-0.8-0.6
				c-0.2-0.2-0.2-0.6-0.1-0.9c0.2-0.3,0.4-0.3,0.7-0.2c1.6,0.3,3.2,0.6,4.8,0.9c1.2,0.2,2.4,0.2,3.5,0.1c2.6-0.3,5.1-2.3,5.8-4.8
				c0.2-0.9,0.2-1.7,0-2.6c-0.1-0.5-0.3-1,0.3-1.3c0.5-0.3,0.9,0.1,1.2,0.5c1.9,1.9,2.7,4.1,2,6.7c-0.2,0.9-0.6,1.6-1.2,2.2
				C85.9,32.2,83.7,33.3,80.7,33.2z"/>
		</g>
	</g>
</g>
</svg>
