<?xml version="1.0" encoding="UTF-8"?><svg id="a" xmlns="http://www.w3.org/2000/svg" viewBox="0 0 24 24"><defs><style>.b{fill:#ff6e0c;}.c{fill:none;}</style></defs><path class="c" d="M0,0H24V24H0V0Z"/><path class="b" d="M4,18H20c.55,0,1-.45,1-1h0c0-.55-.45-1-1-1H4c-.55,0-1,.45-1,1h0c0,.55,.45,1,1,1Zm0-5H20c.55,0,1-.45,1-1h0c0-.55-.45-1-1-1H4c-.55,0-1,.45-1,1h0c0,.55,.45,1,1,1Zm-1-6.03v.06c0,.54,.44,.97,.97,.97H20.03c.54,0,.97-.44,.97-.97v-.06c0-.54-.44-.97-.97-.97H3.97c-.54,0-.97,.44-.97,.97Z"/></svg>