<?xml version="1.0" encoding="UTF-8"?><svg id="a" xmlns="http://www.w3.org/2000/svg" viewBox="0 0 450 559.82"><defs><style>.b,.c{fill:#df717c;}.c{font-family:Countryside, Countryside;font-size:85px;}</style></defs><path class="b" d="M346.75,214.53h-.26c5.52-7.3,10.37-17.09,10.17-28.87-.26-15.92-9.7-31.5-28.05-46.3,2.29-6.95,2.78-13.8,1.44-20.51-5.34-26.59-33.95-37.21-60.21-43.12,.93-3.13,1.44-6.44,1.44-9.87,0-12.98-7.18-24.29-17.75-30.12,10.51-21.52,24.53-23.9,30.17-23.9,7.18,0,11.7,1.55,14.31,2.95,2.03,1.09,4.5,.91,6.33-.49,3.41-2.61,2.97-7.9-.81-9.93-4.21-2.26-10.6-4.36-19.83-4.36-11.25,0-21.79,5.22-30.5,15.09-2.93,3.32-7.17,8.93-10.87,16.84-1.65-.25-3.34-.38-5.07-.38-12.76,0-23.89,7.12-29.71,17.63-2.13-2.37-4.49-5.48-6.14-9-.7-1.48-1.97-2.6-3.52-3.1-1.55-.5-3.23-.32-4.65,.48-17.54,9.92-30.34,23.14-38.06,39.28-6.6,13.81-7.82,26.53-7.84,33.93-.5,.19-.99,.39-1.45,.59-15.18,6.56-23.94,19.05-25.32,36.13-.55,6.82,.21,13.05,1.03,17.32-12.08,4.37-20.49,12.71-23.51,23.65-2.39,8.63-1.16,18,3.08,26.07h-4.68c-1.78,0-3.47,.82-4.58,2.22-1.11,1.41-1.53,3.25-1.14,5l29.07,128.99c1.91,8.49,9.28,14.43,17.92,14.43h167.72c8.64,0,16.01-5.93,17.92-14.43l29.07-128.99c.39-1.75-.02-3.59-1.14-5-1.11-1.41-2.8-2.23-4.58-2.23ZM237.25,43.38c12.29,0,22.29,10.08,22.29,22.48s-10,22.48-22.29,22.48-22.29-10.08-22.29-22.48,10-22.48,22.29-22.48Zm-99.5,309.96c-3.12,0-5.79-2.15-6.48-5.22l-27.44-121.76h18.98l20.97,124.07c.17,1.01,.41,1.98,.7,2.91h-6.73Zm20.97,0c-1.07,0-2.83-1.7-3.37-4.9l-20.63-122.08h19.1l13.94,123.74c.13,1.13,.31,2.21,.55,3.24h-9.59Zm22.03,0c-.41-.67-1.06-2.13-1.33-4.58l-13.79-122.4h19.17l6.95,123.41c.07,1.27,.18,2.46,.33,3.57h-11.32Zm35,0h-11.79c-.2-1.01-.4-2.41-.5-4.24l-6.92-122.74h19.21v126.98h0Zm24.03-4.24c-.1,1.83-.3,3.23-.5,4.24h-11.79v-126.98h19.21l-6.92,122.74Zm22.71,4.24h-11.33c.15-1.11,.25-2.3,.33-3.57l6.95-123.41h19.17l-13.79,122.4c-.28,2.44-.92,3.91-1.33,4.58Zm22.03,0h-9.59c.24-1.03,.43-2.11,.55-3.24l13.94-123.74h19.1l-20.63,122.08c-.54,3.2-2.3,4.9-3.37,4.9Zm27.45-5.22c-.69,3.07-3.36,5.22-6.48,5.22h-6.73c.29-.93,.53-1.9,.7-2.91l20.97-124.07h18.99l-27.44,121.76Zm18.68-133.59h-89.94c13.19-6.95,30.27-16.69,46.37-28.08,2.65-1.88,3.29-5.57,1.43-8.24s-5.52-3.32-8.17-1.44c-27.94,19.77-59.93,34.86-66.23,37.76H115.43c-5.83-6.35-8.2-15.11-6.05-22.89,2.44-8.81,10.31-14.97,22.18-17.36,11.14-2.25,40.6-8.5,73.46-18.03,3.11-.9,4.91-4.18,4.02-7.32-.9-3.14-4.14-4.95-7.26-4.05-29.29,8.49-55.84,14.35-68.82,17.04-1.79-9.74-2.98-30.81,17.55-39.69,7.92-3.42,23.98-6.37,40.97-9.49l5.68-1.05c3.19-.59,5.3-3.67,4.71-6.89-.58-3.21-3.64-5.34-6.83-4.75l-5.66,1.04c-10.97,2.02-21.57,3.96-30.21,6.09,.8-13.78,6.59-38.13,34.83-56.31,2.12,3.19,4.4,5.82,6.21,7.7,1.26,1.31,2.34,2.34,3.28,3.17-.16,1.35-.25,2.71-.25,4.1,0,18.92,15.26,34.31,34.02,34.31,11.02,0,20.84-5.32,27.06-13.54,11.57,2.48,21.14,5.35,28.87,8.7,1.47,2.24,1.27,3.85,.86,5.13-1.46,4.6-10.54,17.26-63.33,35.33-3.07,1.05-4.71,4.41-3.67,7.5,.83,2.46,3.11,4.02,5.55,4.02,.62,0,1.26-.1,1.89-.32,18.92-6.47,34.27-12.94,45.62-19.22,14.36-7.94,22.58-15.7,25.12-23.72,.19-.59,.34-1.18,.46-1.77,7.21,5.28,11.38,11.51,12.87,18.9,2.16,10.75-2.69,22.62-14.4,35.28-2.21,2.39-2.08,6.13,.29,8.36,1.13,1.06,2.57,1.59,4,1.59,1.57,0,3.13-.63,4.29-1.88,4.38-4.73,7.96-9.45,10.76-14.13,14.05,11.89,21.26,23.8,21.45,35.44,.21,12.91-8.24,23.07-14.3,28.68Z"/><text class="c" transform="translate(0 462.67)"><tspan x="0" y="0">Sweet Cake</tspan></text></svg>