<?xml version="1.0" encoding="utf-8"?>
<!-- Generator: Adobe Illustrator 26.1.0, SVG Export Plug-In . SVG Version: 6.00 Build 0)  -->
<svg version="1.1" id="a" xmlns="http://www.w3.org/2000/svg" xmlns:xlink="http://www.w3.org/1999/xlink" x="0px" y="0px"
	 viewBox="0 0 266 365.2" style="enable-background:new 0 0 266 365.2;" xml:space="preserve">
<style type="text/css">
	.st0{opacity:0.25;fill:#FF6E0C;enable-background:new    ;}
</style>
<path class="st0" d="M256.1,214.5h-0.3c5.5-7.3,10.4-17.1,10.2-28.9c-0.3-15.9-9.7-31.5-28.1-46.3c2.3-6.9,2.8-13.8,1.4-20.5
	c-5.3-26.6-33.9-37.2-60.2-43.1c0.9-3.1,1.4-6.4,1.4-9.9c0-13-7.2-24.3-17.8-30.1c10.5-21.5,24.5-23.9,30.2-23.9
	c7.2,0,11.7,1.6,14.3,2.9c2,1.1,4.5,0.9,6.3-0.5c3.4-2.6,3-7.9-0.8-9.9c-4-2.2-10.4-4.3-19.6-4.3c-11.2,0-21.8,5.2-30.5,15.1
	c-2.9,3.3-7.2,8.9-10.9,16.8c-1.6-0.2-3.3-0.4-5.1-0.4c-12.8,0-23.9,7.1-29.7,17.6c-2.1-2.4-4.5-5.5-6.1-9c-0.7-1.5-2-2.6-3.5-3.1
	s-3.2-0.3-4.7,0.5c-17.5,9.9-30.3,23.1-38.1,39.3c-6.6,13.8-7.8,26.5-7.8,33.9c-0.5,0.2-1,0.4-1.5,0.6c-15.2,6.6-23.9,19-25.3,36.1
	c-0.5,6.8,0.2,13.1,1,17.3c-12.1,4.4-20.5,12.7-23.5,23.6c-2.4,8.6-1.2,18,3.1,26.1H5.9c-1.8,0-3.5,0.8-4.6,2.2s-1.5,3.2-1.1,5
	l29.1,129c1.9,8.5,9.3,14.4,17.9,14.4h167.7c8.6,0,16-5.9,17.9-14.4l29.1-129c0.4-1.8,0-3.6-1.1-5
	C259.6,215.3,257.9,214.5,256.1,214.5L256.1,214.5L256.1,214.5z M146.6,43.4c12.3,0,22.3,10.1,22.3,22.5s-10,22.5-22.3,22.5
	s-22.3-10.1-22.3-22.5S134.3,43.4,146.6,43.4z M47.1,353.3c-3.1,0-5.8-2.1-6.5-5.2L13.2,226.4h19l21,124.1c0.2,1,0.4,2,0.7,2.9
	L47.1,353.3L47.1,353.3z M68.1,353.3c-1.1,0-2.8-1.7-3.4-4.9L44.1,226.3h19.1L77.1,350c0.1,1.1,0.3,2.2,0.6,3.2L68.1,353.3
	L68.1,353.3z M90.1,353.3c-0.4-0.7-1.1-2.1-1.3-4.6L75,226.4h19.2l6.9,123.4c0.1,1.3,0.2,2.5,0.3,3.6L90.1,353.3L90.1,353.3z
	 M125.1,353.3h-11.8c-0.2-1-0.4-2.4-0.5-4.2l-6.9-122.7h19.2L125.1,353.3L125.1,353.3L125.1,353.3z M149.1,349.1
	c-0.1,1.8-0.3,3.2-0.5,4.2h-11.8v-127H156L149.1,349.1L149.1,349.1L149.1,349.1z M171.9,353.3h-11.3c0.1-1.1,0.2-2.3,0.3-3.6
	l6.9-123.4H187l-13.8,122.4C172.9,351.2,172.3,352.7,171.9,353.3L171.9,353.3L171.9,353.3z M193.9,353.3h-9.6c0.2-1,0.4-2.1,0.6-3.2
	l13.9-123.7h19.1l-20.6,122.1C196.7,351.6,195,353.3,193.9,353.3L193.9,353.3z M221.3,348.1c-0.7,3.1-3.4,5.2-6.5,5.2h-6.7
	c0.3-0.9,0.5-1.9,0.7-2.9l21-124.1h19L221.3,348.1L221.3,348.1L221.3,348.1z M240,214.5h-89.9c13.2-6.9,30.3-16.7,46.4-28.1
	c2.6-1.9,3.3-5.6,1.4-8.2s-5.5-3.3-8.2-1.4c-27.9,19.8-59.9,34.9-66.2,37.8H24.8c-5.8-6.4-8.2-15.1-6-22.9
	c2.4-8.8,10.3-15,22.2-17.4c11.1-2.2,40.6-8.5,73.5-18c3.1-0.9,4.9-4.2,4-7.3s-4.1-4.9-7.3-4.1c-29.3,8.5-55.8,14.4-68.8,17
	c-1.8-9.7-3-30.8,17.5-39.7c7.9-3.4,24-6.4,41-9.5l5.7-1.1c3.2-0.6,5.3-3.7,4.7-6.9c-0.6-3.2-3.6-5.3-6.8-4.8l-5.7,1
	c-11,2-21.6,4-30.2,6.1c0.8-13.8,6.6-38.1,34.8-56.3c2.1,3.2,4.4,5.8,6.2,7.7c1.3,1.3,2.3,2.3,3.3,3.2c-0.2,1.3-0.2,2.7-0.2,4.1
	c0,18.9,15.3,34.3,34,34.3c11,0,20.8-5.3,27.1-13.5c11.6,2.5,21.1,5.3,28.9,8.7c1.5,2.2,1.3,3.8,0.9,5.1
	c-1.5,4.6-10.5,17.3-63.3,35.3c-3.1,1.1-4.7,4.4-3.7,7.5c0.8,2.5,3.1,4,5.6,4c0.6,0,1.3-0.1,1.9-0.3c18.9-6.5,34.3-12.9,45.6-19.2
	c14.4-7.9,22.6-15.7,25.1-23.7c0.2-0.6,0.3-1.2,0.5-1.8c7.2,5.3,11.4,11.5,12.9,18.9c2.2,10.8-2.7,22.6-14.4,35.3
	c-2.2,2.4-2.1,6.1,0.3,8.4c1.1,1.1,2.6,1.6,4,1.6c1.6,0,3.1-0.6,4.3-1.9c4.4-4.7,8-9.4,10.8-14.1c14.1,11.9,21.3,23.8,21.4,35.4
	C254.5,198.7,246.1,208.9,240,214.5L240,214.5L240,214.5z"/>
</svg>
