<?xml version="1.0" encoding="UTF-8"?><svg id="a" xmlns="http://www.w3.org/2000/svg" viewBox="0 0 24 24"><defs><style>.b{fill:#ff6e0c;}.c{fill:none;}</style></defs><path class="c" d="M0,0H24V24H0V0Z"/><path class="b" d="M15.55,13c.75,0,1.41-.41,1.75-1.03l3.58-6.49c.37-.66-.11-1.48-.87-1.48H5.21l-.94-2H1v2H3l3.6,7.59-1.35,2.44c-.73,1.34,.23,2.97,1.75,2.97h12v-2H7l1.1-2h7.45ZM6.16,6h12.15l-2.76,5h-7.02l-2.37-5Zm.84,12c-1.1,0-1.99,.9-1.99,2s.89,2,1.99,2,2-.9,2-2-.9-2-2-2Zm10,0c-1.1,0-1.99,.9-1.99,2s.89,2,1.99,2,2-.9,2-2-.9-2-2-2Z"/></svg>